<mxfile host="app.diagrams.net" modified="2023-06-22T07:07:45.902Z" agent="Mozilla/5.0 (Windows NT 10.0; Win64; x64) AppleWebKit/537.36 (KHTML, like Gecko) Chrome/114.0.0.0 Safari/537.36" etag="cdAZsmbL8OYwjTvDgKmC" version="21.5.0" type="google">
  <diagram name="Page-1" id="T6mMH-j9m44-H2h8NCx6">
    <mxGraphModel grid="1" page="1" gridSize="10" guides="1" tooltips="1" connect="1" arrows="1" fold="1" pageScale="1" pageWidth="850" pageHeight="1100" math="0" shadow="0">
      <root>
        <mxCell id="0" />
        <mxCell id="1" parent="0" />
        <mxCell id="j_gq_GTQNbYdooQw-T-F-11" value="Dumping values" style="edgeStyle=orthogonalEdgeStyle;rounded=0;orthogonalLoop=1;jettySize=auto;html=1;dashed=1;" edge="1" parent="1" source="j_gq_GTQNbYdooQw-T-F-2" target="j_gq_GTQNbYdooQw-T-F-5">
          <mxGeometry relative="1" as="geometry" />
        </mxCell>
        <mxCell id="j_gq_GTQNbYdooQw-T-F-20" style="edgeStyle=orthogonalEdgeStyle;rounded=0;orthogonalLoop=1;jettySize=auto;html=1;exitX=0.75;exitY=0;exitDx=0;exitDy=0;entryX=0.75;entryY=1;entryDx=0;entryDy=0;dashed=1;" edge="1" parent="1" source="j_gq_GTQNbYdooQw-T-F-2" target="j_gq_GTQNbYdooQw-T-F-3">
          <mxGeometry relative="1" as="geometry" />
        </mxCell>
        <mxCell id="j_gq_GTQNbYdooQw-T-F-21" value="Pid" style="edgeLabel;html=1;align=center;verticalAlign=middle;resizable=0;points=[];" connectable="0" vertex="1" parent="j_gq_GTQNbYdooQw-T-F-20">
          <mxGeometry x="-0.1467" y="-1" relative="1" as="geometry">
            <mxPoint y="-12" as="offset" />
          </mxGeometry>
        </mxCell>
        <mxCell id="j_gq_GTQNbYdooQw-T-F-2" value="Scaphandre" style="rounded=0;whiteSpace=wrap;html=1;fillColor=#fff2cc;strokeColor=#d6b656;" vertex="1" parent="1">
          <mxGeometry x="60" y="365" width="160" height="60" as="geometry" />
        </mxCell>
        <mxCell id="j_gq_GTQNbYdooQw-T-F-19" value="Spawn" style="edgeStyle=orthogonalEdgeStyle;rounded=0;orthogonalLoop=1;jettySize=auto;html=1;exitX=0.25;exitY=1;exitDx=0;exitDy=0;entryX=0.25;entryY=0;entryDx=0;entryDy=0;" edge="1" parent="1" source="j_gq_GTQNbYdooQw-T-F-3" target="j_gq_GTQNbYdooQw-T-F-2">
          <mxGeometry relative="1" as="geometry" />
        </mxCell>
        <mxCell id="j_gq_GTQNbYdooQw-T-F-26" value="Pid" style="edgeStyle=orthogonalEdgeStyle;rounded=0;orthogonalLoop=1;jettySize=auto;html=1;exitX=0.75;exitY=0;exitDx=0;exitDy=0;entryX=0;entryY=0.75;entryDx=0;entryDy=0;dashed=1;" edge="1" parent="1" source="j_gq_GTQNbYdooQw-T-F-3" target="j_gq_GTQNbYdooQw-T-F-4">
          <mxGeometry relative="1" as="geometry" />
        </mxCell>
        <mxCell id="VikrM7SdsqGOzXbGTh8X-6" value="Dump time" style="edgeStyle=orthogonalEdgeStyle;rounded=0;orthogonalLoop=1;jettySize=auto;html=1;exitX=1;exitY=0.5;exitDx=0;exitDy=0;entryX=0;entryY=0.5;entryDx=0;entryDy=0;" edge="1" parent="1" source="j_gq_GTQNbYdooQw-T-F-3" target="j_gq_GTQNbYdooQw-T-F-8">
          <mxGeometry relative="1" as="geometry" />
        </mxCell>
        <mxCell id="j_gq_GTQNbYdooQw-T-F-3" value="&lt;div&gt;energy_consumption_res.erl&lt;/div&gt;" style="rounded=0;whiteSpace=wrap;html=1;fillColor=#d5e8d4;strokeColor=#82b366;" vertex="1" parent="1">
          <mxGeometry x="60" y="220" width="160" height="60" as="geometry" />
        </mxCell>
        <mxCell id="j_gq_GTQNbYdooQw-T-F-22" style="edgeStyle=orthogonalEdgeStyle;rounded=0;orthogonalLoop=1;jettySize=auto;html=1;exitX=0;exitY=0.25;exitDx=0;exitDy=0;entryX=0.25;entryY=0;entryDx=0;entryDy=0;" edge="1" parent="1" source="j_gq_GTQNbYdooQw-T-F-4" target="j_gq_GTQNbYdooQw-T-F-3">
          <mxGeometry relative="1" as="geometry" />
        </mxCell>
        <mxCell id="j_gq_GTQNbYdooQw-T-F-27" value="Start" style="edgeLabel;html=1;align=center;verticalAlign=middle;resizable=0;points=[];" connectable="0" vertex="1" parent="j_gq_GTQNbYdooQw-T-F-22">
          <mxGeometry x="-0.2895" y="3" relative="1" as="geometry">
            <mxPoint as="offset" />
          </mxGeometry>
        </mxCell>
        <mxCell id="j_gq_GTQNbYdooQw-T-F-4" value="Python script" style="rounded=0;whiteSpace=wrap;html=1;" vertex="1" parent="1">
          <mxGeometry x="380" y="80" width="150" height="60" as="geometry" />
        </mxCell>
        <mxCell id="j_gq_GTQNbYdooQw-T-F-16" value="Use" style="edgeStyle=orthogonalEdgeStyle;rounded=0;orthogonalLoop=1;jettySize=auto;html=1;exitX=0.5;exitY=0;exitDx=0;exitDy=0;entryX=0.5;entryY=1;entryDx=0;entryDy=0;dashed=1;" edge="1" parent="1" source="j_gq_GTQNbYdooQw-T-F-5" target="j_gq_GTQNbYdooQw-T-F-8">
          <mxGeometry relative="1" as="geometry" />
        </mxCell>
        <mxCell id="j_gq_GTQNbYdooQw-T-F-5" value="JSON files" style="ellipse;whiteSpace=wrap;html=1;fillColor=#fff2cc;strokeColor=#d6b656;" vertex="1" parent="1">
          <mxGeometry x="395" y="370" width="120" height="50" as="geometry" />
        </mxCell>
        <mxCell id="j_gq_GTQNbYdooQw-T-F-7" value="&lt;div&gt;Matplotlib&lt;/div&gt;&lt;div&gt;figures&lt;/div&gt;" style="ellipse;whiteSpace=wrap;html=1;fillColor=#dae8fc;strokeColor=#6c8ebf;" vertex="1" parent="1">
          <mxGeometry x="670" y="85" width="120" height="50" as="geometry" />
        </mxCell>
        <mxCell id="VikrM7SdsqGOzXbGTh8X-9" value="Import" style="edgeStyle=orthogonalEdgeStyle;rounded=0;orthogonalLoop=1;jettySize=auto;html=1;exitX=1;exitY=0;exitDx=0;exitDy=0;entryX=0.75;entryY=1;entryDx=0;entryDy=0;dashed=1;" edge="1" parent="1" source="j_gq_GTQNbYdooQw-T-F-8" target="j_gq_GTQNbYdooQw-T-F-28">
          <mxGeometry relative="1" as="geometry">
            <Array as="points">
              <mxPoint x="493" y="227" />
              <mxPoint x="493" y="180" />
            </Array>
          </mxGeometry>
        </mxCell>
        <mxCell id="j_gq_GTQNbYdooQw-T-F-8" value="CSV files" style="ellipse;whiteSpace=wrap;html=1;fillColor=#d5e8d4;strokeColor=#82b366;" vertex="1" parent="1">
          <mxGeometry x="395" y="220" width="120" height="50" as="geometry" />
        </mxCell>
        <mxCell id="VikrM7SdsqGOzXbGTh8X-8" value="Create" style="edgeStyle=orthogonalEdgeStyle;rounded=0;orthogonalLoop=1;jettySize=auto;html=1;exitX=0.25;exitY=1;exitDx=0;exitDy=0;entryX=0;entryY=0;entryDx=0;entryDy=0;" edge="1" parent="1" source="j_gq_GTQNbYdooQw-T-F-28" target="j_gq_GTQNbYdooQw-T-F-8">
          <mxGeometry relative="1" as="geometry">
            <Array as="points">
              <mxPoint x="413" y="140" />
            </Array>
          </mxGeometry>
        </mxCell>
        <mxCell id="VikrM7SdsqGOzXbGTh8X-10" value="Draw" style="edgeStyle=orthogonalEdgeStyle;rounded=0;orthogonalLoop=1;jettySize=auto;html=1;exitX=1;exitY=0.5;exitDx=0;exitDy=0;entryX=0;entryY=0.5;entryDx=0;entryDy=0;" edge="1" parent="1" source="j_gq_GTQNbYdooQw-T-F-28" target="j_gq_GTQNbYdooQw-T-F-7">
          <mxGeometry relative="1" as="geometry" />
        </mxCell>
        <mxCell id="VikrM7SdsqGOzXbGTh8X-11" value="Create" style="rounded=0;orthogonalLoop=1;jettySize=auto;html=1;exitX=1;exitY=0.5;exitDx=0;exitDy=0;entryX=0;entryY=0.5;entryDx=0;entryDy=0;" edge="1" parent="1" source="j_gq_GTQNbYdooQw-T-F-28" target="j_gq_GTQNbYdooQw-T-F-30">
          <mxGeometry relative="1" as="geometry" />
        </mxCell>
        <mxCell id="lx344P9QHugMY1OVV0oo-3" value="Save" style="rounded=0;orthogonalLoop=1;jettySize=auto;html=1;exitX=1;exitY=0.5;exitDx=0;exitDy=0;entryX=0;entryY=0.5;entryDx=0;entryDy=0;" edge="1" parent="1" source="j_gq_GTQNbYdooQw-T-F-28" target="lx344P9QHugMY1OVV0oo-1">
          <mxGeometry relative="1" as="geometry" />
        </mxCell>
        <mxCell id="j_gq_GTQNbYdooQw-T-F-28" value="Python script" style="rounded=0;whiteSpace=wrap;html=1;fillColor=#dae8fc;strokeColor=#6c8ebf;" vertex="1" parent="1">
          <mxGeometry x="380" y="80" width="150" height="60" as="geometry" />
        </mxCell>
        <mxCell id="j_gq_GTQNbYdooQw-T-F-30" value=".tex files" style="ellipse;whiteSpace=wrap;html=1;fillColor=#dae8fc;strokeColor=#6c8ebf;" vertex="1" parent="1">
          <mxGeometry x="670" y="180" width="120" height="50" as="geometry" />
        </mxCell>
        <mxCell id="VikrM7SdsqGOzXbGTh8X-4" value="" style="endArrow=classic;html=1;rounded=0;exitX=0.25;exitY=0;exitDx=0;exitDy=0;entryX=0.75;entryY=0;entryDx=0;entryDy=0;dashed=1;" edge="1" parent="1" source="j_gq_GTQNbYdooQw-T-F-28" target="j_gq_GTQNbYdooQw-T-F-28">
          <mxGeometry width="50" height="50" relative="1" as="geometry">
            <mxPoint x="480" y="130" as="sourcePoint" />
            <mxPoint x="530" y="80" as="targetPoint" />
            <Array as="points">
              <mxPoint x="418" y="40" />
              <mxPoint x="493" y="40" />
            </Array>
          </mxGeometry>
        </mxCell>
        <mxCell id="VikrM7SdsqGOzXbGTh8X-5" value="Process" style="edgeLabel;html=1;align=center;verticalAlign=middle;resizable=0;points=[];" connectable="0" vertex="1" parent="VikrM7SdsqGOzXbGTh8X-4">
          <mxGeometry x="-0.1441" y="1" relative="1" as="geometry">
            <mxPoint x="11" as="offset" />
          </mxGeometry>
        </mxCell>
        <mxCell id="lx344P9QHugMY1OVV0oo-1" value="log files" style="ellipse;whiteSpace=wrap;html=1;fillColor=#dae8fc;strokeColor=#6c8ebf;" vertex="1" parent="1">
          <mxGeometry x="670" y="270" width="120" height="50" as="geometry" />
        </mxCell>
      </root>
    </mxGraphModel>
  </diagram>
</mxfile>
